HIERARCHY
ROOT Hips
{
  OFFSET 0.000000 95.000000 0.000000
  CHANNELS 6 Xposition Yposition Zposition Zrotation Xrotation Yrotation
  JOINT Spine
  {
    OFFSET 0.000000 10.000000 0.000000
    CHANNELS 3 Zrotation Xrotation Yrotation
    JOINT Spine1
    {
      OFFSET 0.000000 12.000000 0.000000
      CHANNELS 3 Zrotation Xrotation Yrotation
      JOINT Spine2
      {
        OFFSET 0.000000 12.000000 0.000000
        CHANNELS 3 Zrotation Xrotation Yrotation
        JOINT Neck
        {
          OFFSET 0.000000 10.000000 0.000000
          CHANNELS 3 Zrotation Xrotation Yrotation
          JOINT Head
          {
            OFFSET 0.000000 8.000000 0.000000
            CHANNELS 3 Zrotation Xrotation Yrotation
            End Site
            {
              OFFSET 0.000000 10.000000 0.000000
            }
          }
        }
        JOINT LeftShoulder
        {
          OFFSET 6.000000 8.000000 0.000000
          CHANNELS 3 Zrotation Xrotation Yrotation
          JOINT LeftArm
          {
            OFFSET 12.000000 0.000000 0.000000
            CHANNELS 3 Zrotation Xrotation Yrotation
            JOINT LeftForeArm
            {
              OFFSET 24.000000 0.000000 0.000000
              CHANNELS 3 Zrotation Xrotation Yrotation
              JOINT LeftHand
              {
                OFFSET 22.000000 0.000000 0.000000
                CHANNELS 3 Zrotation Xrotation Yrotation
                JOINT LeftHandThumb1
                {
                  OFFSET 1.800000 -1.400000 0.500000
                  CHANNELS 3 Zrotation Xrotation Yrotation
                  JOINT LeftHandThumb2
                  {
                    OFFSET 2.400000 0.000000 0.000000
                    CHANNELS 3 Zrotation Xrotation Yrotation
                    JOINT LeftHandThumb3
                    {
                      OFFSET 1.900000 0.000000 0.000000
                      CHANNELS 3 Zrotation Xrotation Yrotation
                      End Site
                      {
                        OFFSET 1.600000 0.000000 0.000000
                      }
                    }
                  }
                }
                JOINT LeftHandIndex1
                {
                  OFFSET 6.600000 1.200000 0.300000
                  CHANNELS 3 Zrotation Xrotation Yrotation
                  JOINT LeftHandIndex2
                  {
                    OFFSET 2.000000 0.000000 0.000000
                    CHANNELS 3 Zrotation Xrotation Yrotation
                    JOINT LeftHandIndex3
                    {
                      OFFSET 1.200000 0.000000 0.000000
                      CHANNELS 3 Zrotation Xrotation Yrotation
                      End Site
                      {
                        OFFSET 1.000000 0.000000 0.000000
                      }
                    }
                  }
                }
                JOINT LeftHandMiddle1
                {
                  OFFSET 7.200000 0.000000 0.300000
                  CHANNELS 3 Zrotation Xrotation Yrotation
                  JOINT LeftHandMiddle2
                  {
                    OFFSET 3.000000 0.000000 0.000000
                    CHANNELS 3 Zrotation Xrotation Yrotation
                    JOINT LeftHandMiddle3
                    {
                      OFFSET 2.000000 0.000000 0.000000
                      CHANNELS 3 Zrotation Xrotation Yrotation
                      End Site
                      {
                        OFFSET 1.600000 0.000000 0.000000
                      }
                    }
                  }
                }
                JOINT LeftHandRing1
                {
                  OFFSET 7.100000 -1.000000 0.400000
                  CHANNELS 3 Zrotation Xrotation Yrotation
                  JOINT LeftHandRing2
                  {
                    OFFSET 2.600000 0.000000 0.000000
                    CHANNELS 3 Zrotation Xrotation Yrotation
                    JOINT LeftHandRing3
                    {
                      OFFSET 1.600000 0.000000 0.000000
                      CHANNELS 3 Zrotation Xrotation Yrotation
                      End Site
                      {
                        OFFSET 1.300000 0.000000 0.000000
                      }
                    }
                  }
                }
                JOINT LeftHandPinky1
                {
                  OFFSET 6.500000 -2.000000 0.500000
                  CHANNELS 3 Zrotation Xrotation Yrotation
                  JOINT LeftHandPinky2
                  {
                    OFFSET 1.900000 0.000000 0.000000
                    CHANNELS 3 Zrotation Xrotation Yrotation
                    JOINT LeftHandPinky3
                    {
                      OFFSET 1.400000 0.000000 0.000000
                      CHANNELS 3 Zrotation Xrotation Yrotation
                      End Site
                      {
                        OFFSET 1.300000 0.000000 0.000000
                      }
                    }
                  }
                }
              }
            }
          }
        }
        JOINT RightShoulder
        {
          OFFSET -6.000000 8.000000 0.000000
          CHANNELS 3 Zrotation Xrotation Yrotation
          JOINT RightArm
          {
            OFFSET -12.000000 0.000000 0.000000
            CHANNELS 3 Zrotation Xrotation Yrotation
            JOINT RightForeArm
            {
              OFFSET -24.000000 0.000000 0.000000
              CHANNELS 3 Zrotation Xrotation Yrotation
              JOINT RightHand
              {
                OFFSET -22.000000 0.000000 0.000000
                CHANNELS 3 Zrotation Xrotation Yrotation
                JOINT RightHandThumb1
                {
                  OFFSET -1.800000 -1.400000 0.500000
                  CHANNELS 3 Zrotation Xrotation Yrotation
                  JOINT RightHandThumb2
                  {
                    OFFSET -2.400000 0.000000 0.000000
                    CHANNELS 3 Zrotation Xrotation Yrotation
                    JOINT RightHandThumb3
                    {
                      OFFSET -1.900000 0.000000 0.000000
                      CHANNELS 3 Zrotation Xrotation Yrotation
                      End Site
                      {
                        OFFSET -1.600000 0.000000 0.000000
                      }
                    }
                  }
                }
                JOINT RightHandIndex1
                {
                  OFFSET -6.600000 1.200000 0.300000
                  CHANNELS 3 Zrotation Xrotation Yrotation
                  JOINT RightHandIndex2
                  {
                    OFFSET -2.000000 0.000000 0.000000
                    CHANNELS 3 Zrotation Xrotation Yrotation
                    JOINT RightHandIndex3
                    {
                      OFFSET -1.200000 0.000000 0.000000
                      CHANNELS 3 Zrotation Xrotation Yrotation
                      End Site
                      {
                        OFFSET -1.000000 0.000000 0.000000
                      }
                    }
                  }
                }
                JOINT RightHandMiddle1
                {
                  OFFSET -7.200000 0.000000 0.300000
                  CHANNELS 3 Zrotation Xrotation Yrotation
                  JOINT RightHandMiddle2
                  {
                    OFFSET -3.000000 0.000000 0.000000
                    CHANNELS 3 Zrotation Xrotation Yrotation
                    JOINT RightHandMiddle3
                    {
                      OFFSET -2.000000 0.000000 0.000000
                      CHANNELS 3 Zrotation Xrotation Yrotation
                      End Site
                      {
                        OFFSET -1.600000 0.000000 0.000000
                      }
                    }
                  }
                }
                JOINT RightHandRing1
                {
                  OFFSET -7.100000 -1.000000 0.400000
                  CHANNELS 3 Zrotation Xrotation Yrotation
                  JOINT RightHandRing2
                  {
                    OFFSET -2.600000 0.000000 0.000000
                    CHANNELS 3 Zrotation Xrotation Yrotation
                    JOINT RightHandRing3
                    {
                      OFFSET -1.600000 0.000000 0.000000
                      CHANNELS 3 Zrotation Xrotation Yrotation
                      End Site
                      {
                        OFFSET -1.300000 0.000000 0.000000
                      }
                    }
                  }
                }
                JOINT RightHandPinky1
                {
                  OFFSET -6.500000 -2.000000 0.500000
                  CHANNELS 3 Zrotation Xrotation Yrotation
                  JOINT RightHandPinky2
                  {
                    OFFSET -1.900000 0.000000 0.000000
                    CHANNELS 3 Zrotation Xrotation Yrotation
                    JOINT RightHandPinky3
                    {
                      OFFSET -1.400000 0.000000 0.000000
                      CHANNELS 3 Zrotation Xrotation Yrotation
                      End Site
                      {
                        OFFSET -1.300000 0.000000 0.000000
                      }
                    }
                  }
                }
              }
            }
          }
        }
      }
    }
  }
  JOINT LeftUpLeg
  {
    OFFSET 10.000000 -5.000000 0.000000
    CHANNELS 3 Zrotation Xrotation Yrotation
    JOINT LeftLeg
    {
      OFFSET 0.000000 -42.000000 0.000000
      CHANNELS 3 Zrotation Xrotation Yrotation
      JOINT LeftFoot
      {
        OFFSET 0.000000 -42.000000 4.000000
        CHANNELS 3 Zrotation Xrotation Yrotation
        End Site
        {
          OFFSET 0.000000 0.000000 12.000000
        }
      }
    }
  }
  JOINT RightUpLeg
  {
    OFFSET -10.000000 -5.000000 0.000000
    CHANNELS 3 Zrotation Xrotation Yrotation
    JOINT RightLeg
    {
      OFFSET 0.000000 -42.000000 0.000000
      CHANNELS 3 Zrotation Xrotation Yrotation
      JOINT RightFoot
      {
        OFFSET 0.000000 -42.000000 4.000000
        CHANNELS 3 Zrotation Xrotation Yrotation
        End Site
        {
          OFFSET 0.000000 0.000000 12.000000
        }
      }
    }
  }
}
MOTION
Frames: 5
Frame Time: 0.033333
0.0000 95.0000 0.0000 0.0000 0.0000 0.0000 0.0000 0.0000 0.0000 0.0000 0.0000 0.0000 0.0000 0.0000 0.0000 0.0000 0.0000 0.0000 0.0000 0.0000 0.0000 0.0000 0.0000 0.0000 -78.5109 -16.4345 -20.0430 -228.4595 46.2753 -323.5069 -563.6439 -48.0205 -146.6686 58.3618 -14.1191 -13.8772 7.1982 0.0000 0.0000 24.6408 0.0000 0.0000 -15.3008 1.3659 -14.8180 1.3184 0.0000 0.0000 2.6321 0.0000 0.0000 -2.6760 -0.2983 -17.4898 4.6591 0.0000 0.0000 4.7084 0.0000 0.0000 3.4373 -1.6057 -12.8389 10.4592 0.0000 0.0000 4.3518 0.0000 0.0000 5.3408 -2.6306 -8.6908 17.0793 0.0000 0.0000 6.5717 0.0000 0.0000 0.0000 0.0000 0.0000 88.2821 -21.3681 22.0029 225.4402 46.0761 312.8585 -122.1225 -67.5106 128.6278 -74.2229 -14.8605 22.6077 7.9995 0.0000 0.0000 7.8201 0.0000 0.0000 1.7067 4.1039 24.0755 11.4499 0.0000 0.0000 5.2407 0.0000 0.0000 -4.6802 1.1657 32.7310 4.6027 0.0000 0.0000 2.6269 0.0000 0.0000 -11.2586 -1.9079 30.6506 6.1956 0.0000 0.0000 1.8265 0.0000 0.0000 -16.1276 -5.8097 29.0870 10.6639 0.0000 0.0000 3.1577 0.0000 0.0000 0.0000 0.0000 0.0000 0.0000 0.0000 0.0000 0.0000 0.0000 0.0000 0.0000 0.0000 0.0000 0.0000 0.0000 0.0000 0.0000 0.0000 0.0000
0.0000 95.0000 0.0000 0.0000 0.0000 0.0000 0.0000 0.0000 0.0000 0.0000 0.0000 0.0000 0.0000 0.0000 0.0000 0.0000 0.0000 0.0000 0.0000 0.0000 0.0000 0.0000 0.0000 0.0000 -78.7478 -15.6079 -18.9625 -225.8956 46.8998 -322.9863 -565.9955 -49.2690 -143.2405 61.4034 -13.8719 -9.8100 8.4554 0.0000 0.0000 20.3454 0.0000 0.0000 -11.6821 1.2975 -9.9603 9.2671 0.0000 0.0000 4.6267 0.0000 0.0000 -1.9396 -0.1324 -12.5826 6.2468 0.0000 0.0000 5.0249 0.0000 0.0000 -0.0901 -1.2262 -8.7129 9.3972 0.0000 0.0000 5.4869 0.0000 0.0000 -2.3380 -2.1857 -7.1916 14.4078 0.0000 0.0000 12.8670 0.0000 0.0000 0.0000 0.0000 0.0000 88.3662 -21.3444 21.9471 225.4064 46.1966 312.8030 -117.2602 -67.4918 123.8284 -70.7755 -14.9170 21.6034 9.7186 0.0000 0.0000 7.7558 0.0000 0.0000 2.0578 3.8402 22.8581 11.7464 0.0000 0.0000 5.5188 0.0000 0.0000 -4.9148 1.1314 30.6856 5.0640 0.0000 0.0000 2.7518 0.0000 0.0000 -13.0793 -1.4678 28.8610 6.4581 0.0000 0.0000 2.1388 0.0000 0.0000 -17.6679 -5.1978 26.9165 9.7128 0.0000 0.0000 3.6819 0.0000 0.0000 0.0000 0.0000 0.0000 0.0000 0.0000 0.0000 0.0000 0.0000 0.0000 0.0000 0.0000 0.0000 0.0000 0.0000 0.0000 0.0000 0.0000 0.0000
0.0000 95.0000 0.0000 0.0000 0.0000 0.0000 0.0000 0.0000 0.0000 0.0000 0.0000 0.0000 0.0000 0.0000 0.0000 0.0000 0.0000 0.0000 0.0000 0.0000 0.0000 0.0000 0.0000 0.0000 -79.5912 -15.2727 -18.2862 -223.7758 46.0056 -322.3300 -559.3635 -50.6127 -151.5269 60.0949 -14.2894 -14.5926 8.2216 0.0000 0.0000 17.9184 0.0000 0.0000 -14.2388 1.4744 -15.1316 5.1849 0.0000 0.0000 2.5521 0.0000 0.0000 -3.3373 -0.3908 -18.1262 2.9715 0.0000 0.0000 4.4459 0.0000 0.0000 -0.8172 -1.9164 -13.2755 8.7533 0.0000 0.0000 4.4824 0.0000 0.0000 -0.8467 -3.3105 -10.7371 12.1054 0.0000 0.0000 9.2131 0.0000 0.0000 0.0000 0.0000 0.0000 88.8559 -21.1997 21.6173 224.9846 45.6057 312.8222 -106.0321 -59.5306 111.8514 -67.6728 -14.7363 16.7449 13.0971 0.0000 0.0000 7.3615 0.0000 0.0000 -0.3812 2.9199 15.8562 10.4943 0.0000 0.0000 5.0584 0.0000 0.0000 -7.2390 1.2524 24.3780 3.3425 0.0000 0.0000 2.9365 0.0000 0.0000 -13.8668 -1.1879 22.3960 4.9049 0.0000 0.0000 1.8768 0.0000 0.0000 -19.8613 -4.0808 21.0066 9.2201 0.0000 0.0000 2.7083 0.0000 0.0000 0.0000 0.0000 0.0000 0.0000 0.0000 0.0000 0.0000 0.0000 0.0000 0.0000 0.0000 0.0000 0.0000 0.0000 0.0000 0.0000 0.0000 0.0000
0.0000 95.0000 0.0000 0.0000 0.0000 0.0000 0.0000 0.0000 0.0000 0.0000 0.0000 0.0000 0.0000 0.0000 0.0000 0.0000 0.0000 0.0000 0.0000 0.0000 0.0000 0.0000 0.0000 0.0000 -80.1691 -14.7838 -17.5261 -221.6837 45.0586 -322.0239 -559.9882 -48.4846 -150.2037 58.4107 -14.0612 -13.3955 6.2407 0.0000 0.0000 22.3762 0.0000 0.0000 -13.0038 1.5047 -13.9433 4.4442 0.0000 0.0000 4.1333 0.0000 0.0000 -1.8480 -0.1949 -16.8096 4.8430 0.0000 0.0000 5.0641 0.0000 0.0000 4.5183 -1.3757 -11.1712 10.4545 0.0000 0.0000 1.9156 0.0000 0.0000 6.7831 -2.2101 -6.9902 15.1378 0.0000 0.0000 3.4455 0.0000 0.0000 0.0000 0.0000 0.0000 89.6746 -20.7203 20.8358 224.6809 44.8203 313.3438 -133.1513 -76.7574 145.8761 -82.6014 -14.3272 26.9209 8.8364 0.0000 0.0000 3.8613 0.0000 0.0000 -1.2329 5.6191 29.1359 13.3782 0.0000 0.0000 6.8002 0.0000 0.0000 -7.9437 2.6193 41.2216 8.7021 0.0000 0.0000 2.5893 0.0000 0.0000 -14.9887 -1.1787 38.7705 10.4678 0.0000 0.0000 1.6074 0.0000 0.0000 -19.6024 -5.9400 35.0508 12.8141 0.0000 0.0000 4.0544 0.0000 0.0000 0.0000 0.0000 0.0000 0.0000 0.0000 0.0000 0.0000 0.0000 0.0000 0.0000 0.0000 0.0000 0.0000 0.0000 0.0000 0.0000 0.0000 0.0000
0.0000 95.0000 0.0000 0.0000 0.0000 0.0000 0.0000 0.0000 0.0000 0.0000 0.0000 0.0000 0.0000 0.0000 0.0000 0.0000 0.0000 0.0000 0.0000 0.0000 0.0000 0.0000 0.0000 0.0000 -80.2898 -14.6585 -17.3417 -221.1070 45.1480 -321.8168 -557.6554 -48.1416 -152.2633 57.2478 -14.0797 -14.0195 5.6855 0.0000 0.0000 24.0517 0.0000 0.0000 -12.8551 1.4509 -12.9778 5.2206 0.0000 0.0000 5.1736 0.0000 0.0000 -1.9806 -0.2101 -16.8785 5.6932 0.0000 0.0000 5.1187 0.0000 0.0000 4.6679 -1.3825 -11.3039 11.0689 0.0000 0.0000 1.3130 0.0000 0.0000 6.3629 -2.2739 -7.2660 14.5157 0.0000 0.0000 2.9929 0.0000 0.0000 0.0000 0.0000 0.0000 90.0363 -20.3456 20.3330 224.3703 44.7000 313.5900 -127.3318 -75.4728 139.8957 -90.0359 -15.6166 14.8898 6.3646 0.0000 0.0000 9.6728 0.0000 0.0000 -4.4285 4.1557 19.5923 17.0823 0.0000 0.0000 9.8249 0.0000 0.0000 -9.6413 2.9335 38.5497 6.7351 0.0000 0.0000 3.1490 0.0000 0.0000 -13.3709 -1.5977 36.6684 10.6246 0.0000 0.0000 0.5489 0.0000 0.0000 -14.5235 -6.4881 31.1914 17.7743 0.0000 0.0000 4.3018 0.0000 0.0000 0.0000 0.0000 0.0000 0.0000 0.0000 0.0000 0.0000 0.0000 0.0000 0.0000 0.0000 0.0000 0.0000 0.0000 0.0000 0.0000 0.0000 0.0000
